# xmcd
#
# Track frame offsets:
#	150
#	18869
#	36816
#	53043
#	70147
#	90341
#	110449
#	130935
#	152543
#	171356
#	188139
#	207798
#	229928
#	253155
#	278750
#	295523
#	316822
#	336554
#
# Disc length: 4738 seconds
#
# Revision: 1
# Processed by: cddbd v1.5.2PL0 Copyright (c) Steve Scherf et al.
# Submitted via: audiograbber 1.83.01
#
DISCID=f7128012
DTITLE=Mary J Blige - Reflections (A Retrospection)
DYEAR=2006
DGENRE=R&B
TTITLE0=Reflections (I Remember)
TTITLE1=We Ride (I See The Future)
TTITLE2=You Know
TTITLE3=King And Queen (Duet with John Legend)
TTITLE4=No More Drama
TTITLE5=Family Affair
TTITLE6=Real Love
TTITLE7=No One Will Do
TTITLE8=Be Without You
TTITLE9=I'm Going Down
TTITLE10=911 (Duet with Wyclef)
TTITLE11=Not Gon' Cry
TTITLE12=My Life '06
TTITLE13=Be Happy
TTITLE14=I'll Be There For You, You're All I Need To Get By (ft. Method Man) - 
TTITLE14=Razor Sharp Mix
TTITLE15=As (George Michael and Mary Mary J Blige)
TTITLE16=One (Mary J Blige and U2)
TTITLE17=MJB Da MVP
EXTD=
EXTT0=
EXTT1=
EXTT2=
EXTT3=
EXTT4=
EXTT5=
EXTT6=
EXTT7=
EXTT8=
EXTT9=
EXTT10=
EXTT11=
EXTT12=
EXTT13=
EXTT14=
EXTT15=
EXTT16=
EXTT17=
PLAYORDER=
